<svg version="1.1" xmlns="http://www.w3.org/2000/svg" id="plot_svg" class="lz-locuszoom" viewBox="0 0 850 708" preserveAspectRatio="xMinYMin meet"><style type="text/css"><![CDATA[ svg.lz-locuszoom { background-color: #FFFFFF; border: none; cursor: crosshair; font-family: "Helvetica Neue", Helvetica, Arial, sans-serif; font-size: 10px; } svg.lz-locuszoom rect.lz-clickarea { fill: black; fill-opacity: 0; cursor: pointer; } svg.lz-locuszoom .lz-mouse_guide rect { fill: #d2d2d2; fill-opacity: 0.85; } svg.lz-locuszoom .lz-mouse_guide rect.lz-mouse_guide-vertical { width: 1px; height: 100%; } svg.lz-locuszoom .lz-mouse_guide rect.lz-mouse_guide-horizontal { width: 100%; height: 1px; } svg.lz-locuszoom .lz-panel-title { font-size: 18px; font-weight: 600; } svg.lz-locuszoom .lz-panel-background { fill: white; fill-opacity: 0.01; } svg.lz-locuszoom .lz-axis path, svg.lz-locuszoom .lz-axis line { fill: none; stroke: rgb(24, 24, 24); stroke-opacity: 1; shape-rendering: crispEdges; } svg.lz-locuszoom .lz-axis .lz-label { font-size: 12px; font-weight: 600; } svg.lz-locuszoom .tick text:focus { outline-style: dotted; outline-width: 1px; outline-color: #424242; outline-offset: 2px; } svg.lz-locuszoom .lz-legend-background { fill: whitesmoke; fill-opacity: 1; stroke: rgb(24, 24, 24); stroke-opacity: 1; stroke-width: 1px; } svg.lz-locuszoom path.lz-data_layer-scatter { stroke: rgb(24, 24, 24); stroke-opacity: 0.4; stroke-width: 1px; cursor: pointer; } svg.lz-locuszoom path.lz-data_layer-scatter-highlighted { stroke: rgb(24, 24, 24); stroke-opacity: 0.4; stroke-width: 4px; } svg.lz-locuszoom path.lz-data_layer-scatter-selected { stroke: rgb(24, 24, 24); stroke-opacity: 1; stroke-width: 4px; } svg.lz-locuszoom path.lz-data_layer-scatter-faded { fill-opacity: 0.1; stroke-opacity: 0.1; } svg.lz-locuszoom path.lz-data_layer-scatter-hidden { display: none; } svg.lz-locuszoom text.lz-data_layer-scatter-label { fill: rgb(24, 24, 24); fill-opacity: 1; alignment-baseline: middle; } svg.lz-locuszoom line.lz-data_layer-scatter-label { stroke: rgb(24, 24, 24); stroke-opacity: 1; stroke-width: 1px; } svg.lz-locuszoom path.lz-data_layer-line { stroke: rgb(24, 24, 24); stroke-opacity: 1; stroke-width: 1px; cursor: pointer; } svg.lz-locuszoom path.lz-data_layer-line-faded { stroke-opacity: 0.2; } svg.lz-locuszoom path.lz-data_layer-line-hidden { display: none; } svg.lz-locuszoom path.lz-data_layer-line-hitarea { fill: none; stroke: none; cursor: pointer; } svg.lz-locuszoom g.lz-data_layer-genes { cursor: pointer; } svg.lz-locuszoom g.lz-data_layer-genes-faded { opacity: 0.1; } svg.lz-locuszoom g.lz-data_layer-genes-hidden { display: none; } svg.lz-locuszoom text.lz-data_layer-genes.lz-label { font-style: italic; } svg.lz-locuszoom rect.lz-data_layer-genes.lz-data_layer-genes-bounding_box { fill: #363696; fill-opacity: 0; stroke-width: 0px; } svg.lz-locuszoom rect.lz-data_layer-genes.lz-data_layer-genes-bounding_box-highlighted { fill: #363696; fill-opacity: 0.1; stroke-width: 0px; } svg.lz-locuszoom rect.lz-data_layer-genes.lz-data_layer-genes-bounding_box-selected { fill: #363696; fill-opacity: 0.15; stroke: rgb(24, 24, 24); stroke-opacity: 1; stroke-width: 1px; } svg.lz-locuszoom rect.lz-data_layer-genes.lz-boundary { stroke: #363696; stroke-opacity: 1; stroke-width: 1px; fill: #000099; } svg.lz-locuszoom rect.lz-data_layer-genes.lz-exon { stroke: #363696; stroke-opacity: 1; stroke-width: 1px; fill: #000099; } svg.lz-locuszoom g.lz-data_layer-intervals-faded { opacity: 0.1; } svg.lz-locuszoom g.lz-data_layer-intervals-hidden { display: none; } svg.lz-locuszoom rect.lz-data_layer-intervals.lz-data_layer-intervals-bounding_box { fill: #363696; fill-opacity: 0; stroke-width: 0px; } svg.lz-locuszoom rect.lz-data_layer-intervals.lz-data_layer-intervals-bounding_box-highlighted { fill: #363696; fill-opacity: 0.2; stroke-width: 0px; } svg.lz-locuszoom rect.lz-data_layer-intervals.lz-data_layer-intervals-bounding_box-selected { fill: #363696; fill-opacity: 0.35; stroke: rgb(24, 24, 24); stroke-opacity: 1; stroke-width: 1px; } svg.lz-locuszoom rect.lz-data_layer-intervals.lz-interval_rect { stroke-width: 0px; } svg.lz-locuszoom path.lz-data_layer-forest { stroke: rgb(24, 24, 24); stroke-opacity: 0.4; stroke-width: 1px; cursor: pointer; } svg.lz-locuszoom path.lz-data_layer-forest-highlighted { stroke: rgb(24, 24, 24); stroke-opacity: 0.4; stroke-width: 4px; } svg.lz-locuszoom path.lz-data_layer-forest-selected { stroke: rgb(24, 24, 24); stroke-opacity: 1; stroke-width: 4px; } svg.lz-locuszoom path.lz-data_layer-forest-faded { fill-opacity: 0.1; stroke-opacity: 0.1; } svg.lz-locuszoom path.lz-data_layer-forest-hidden { display: none; } svg.lz-locuszoom rect.lz-data_layer-forest.lz-data_layer-ci { stroke: rgb(24, 24, 24); stroke-opacity: 1; stroke-width: 1px; }  ]]></style><g id="plot.efowas.panel_container" transform="translate(0,0)"><clipPath id="plot.efowas.clip"><rect width="850" height="708"></rect></clipPath><g id="plot.efowas.panel" clip-path="url(#plot.efowas.clip)"><rect class="lz-panel-background" x="50" y="32" width="750" height="556" style="stroke-width: 1; stroke: rgb(210, 210, 210);"></rect><text class="lz-panel-title" display="none"></text><g id="plot.efowas.x_axis" class="lz-x lz-axis" transform="translate(50,588)"><text class="lz-x lz-axis lz-label" text-anchor="middle" x="375" y="35">Genomic Position (number denotes chromosome)</text><g class="tick" transform="translate(30.206810680906877,0)" style="opacity: 1;"><line y2="6" x2="0"></line><text dy="7.1" y="9" x="0" transform="translate(0, 5)  rotate(0)" style="text-anchor: middle; fill: rgb(120, 120, 186); font-size: 10px; font-weight: bold;">1</text></g><g class="tick" transform="translate(89.8870784313812,0)" style="opacity: 1;"><line y2="6" x2="0"></line><text dy="7.1" y="9" x="0" transform="translate(0, 5)  rotate(0)" style="text-anchor: middle; fill: rgb(0, 0, 66); font-size: 10px; font-weight: bold;">2</text></g><g class="tick" transform="translate(143.3589755192047,0)" style="opacity: 1;"><line y2="6" x2="0"></line><text dy="7.1" y="9" x="0" transform="translate(0, 5)  rotate(0)" style="text-anchor: middle; fill: rgb(120, 120, 186); font-size: 10px; font-weight: bold;">3</text></g><g class="tick" transform="translate(190.5235004442017,0)" style="opacity: 1;"><line y2="6" x2="0"></line><text dy="7.1" y="9" x="0" transform="translate(0, 5)  rotate(0)" style="text-anchor: middle; fill: rgb(0, 0, 66); font-size: 10px; font-weight: bold;">4</text></g><g class="tick" transform="translate(235.61479864873522,0)" style="opacity: 1;"><line y2="6" x2="0"></line><text dy="7.1" y="9" x="0" transform="translate(0, 5)  rotate(0)" style="text-anchor: middle; fill: rgb(120, 120, 186); font-size: 10px; font-weight: bold;">5</text></g><g class="tick" transform="translate(278.2775346989802,0)" style="opacity: 1;"><line y2="6" x2="0"></line><text dy="7.1" y="9" x="0" transform="translate(0, 5)  rotate(0)" style="text-anchor: middle; fill: rgb(0, 0, 66); font-size: 10px; font-weight: bold;">6</text></g><g class="tick" transform="translate(318.3011538930803,0)" style="opacity: 1;"><line y2="6" x2="0"></line><text dy="7.1" y="9" x="0" transform="translate(0, 5)  rotate(0)" style="text-anchor: middle; fill: rgb(120, 120, 186); font-size: 10px; font-weight: bold;">7</text></g><g class="tick" transform="translate(355.3251813499048,0)" style="opacity: 1;"><line y2="6" x2="0"></line><text dy="7.1" y="9" x="0" transform="translate(0, 5)  rotate(0)" style="text-anchor: middle; fill: rgb(0, 0, 66); font-size: 10px; font-weight: bold;">8</text></g><g class="tick" transform="translate(390.1768404898564,0)" style="opacity: 1;"><line y2="6" x2="0"></line><text dy="7.1" y="9" x="0" transform="translate(0, 5)  rotate(0)" style="text-anchor: middle; fill: rgb(120, 120, 186); font-size: 10px; font-weight: bold;">9</text></g><g class="tick" transform="translate(423.7160943506168,0)" style="opacity: 1;"><line y2="6" x2="0"></line><text dy="7.1" y="9" x="0" transform="translate(0, 5)  rotate(0)" style="text-anchor: middle; fill: rgb(0, 0, 66); font-size: 10px; font-weight: bold;">10</text></g><g class="tick" transform="translate(456.5031291151491,0)" style="opacity: 1;"><line y2="6" x2="0"></line><text dy="7.1" y="9" x="0" transform="translate(0, 5)  rotate(0)" style="text-anchor: middle; fill: rgb(120, 120, 186); font-size: 10px; font-weight: bold;">11</text></g><g class="tick" transform="translate(489.0862179389187,0)" style="opacity: 1;"><line y2="6" x2="0"></line><text dy="7.1" y="9" x="0" transform="translate(0, 5)  rotate(0)" style="text-anchor: middle; fill: rgb(0, 0, 66); font-size: 10px; font-weight: bold;">12</text></g><g class="tick" transform="translate(519.2652946555246,0)" style="opacity: 1;"><line y2="6" x2="0"></line><text dy="7.1" y="9" x="0" transform="translate(0, 5)  rotate(0)" style="text-anchor: middle; fill: rgb(120, 120, 186); font-size: 10px; font-weight: bold;">13</text></g><g class="tick" transform="translate(546.2325372339045,0)" style="opacity: 1;"><line y2="6" x2="0"></line><text dy="7.1" y="9" x="0" transform="translate(0, 5)  rotate(0)" style="text-anchor: middle; fill: rgb(0, 0, 66); font-size: 10px; font-weight: bold;">14</text></g><g class="tick" transform="translate(571.6681152013988,0)" style="opacity: 1;"><line y2="6" x2="0"></line><text dy="7.1" y="9" x="0" transform="translate(0, 5)  rotate(0)" style="text-anchor: middle; fill: rgb(120, 120, 186); font-size: 10px; font-weight: bold;">15</text></g><g class="tick" transform="translate(595.0440860807415,0)" style="opacity: 1;"><line y2="6" x2="0"></line><text dy="7.1" y="9" x="0" transform="translate(0, 5)  rotate(0)" style="text-anchor: middle; fill: rgb(0, 0, 66); font-size: 10px; font-weight: bold;">16</text></g><g class="tick" transform="translate(615.8343143452265,0)" style="opacity: 1;"><line y2="6" x2="0"></line><text dy="7.1" y="9" x="0" transform="translate(0, 5)  rotate(0)" style="text-anchor: middle; fill: rgb(120, 120, 186); font-size: 10px; font-weight: bold;">17</text></g><g class="tick" transform="translate(635.1366253504657,0)" style="opacity: 1;"><line y2="6" x2="0"></line><text dy="7.1" y="9" x="0" transform="translate(0, 5)  rotate(0)" style="text-anchor: middle; fill: rgb(0, 0, 66); font-size: 10px; font-weight: bold;">18</text></g><g class="tick" transform="translate(651.7647188486924,0)" style="opacity: 1;"><line y2="6" x2="0"></line><text dy="7.1" y="9" x="0" transform="translate(0, 5)  rotate(0)" style="text-anchor: middle; fill: rgb(120, 120, 186); font-size: 10px; font-weight: bold;">19</text></g><g class="tick" transform="translate(666.5686859407224,0)" style="opacity: 1;"><line y2="6" x2="0"></line><text dy="7.1" y="9" x="0" transform="translate(0, 5)  rotate(0)" style="text-anchor: middle; fill: rgb(0, 0, 66); font-size: 10px; font-weight: bold;">20</text></g><g class="tick" transform="translate(680.0396676652847,0)" style="opacity: 1;"><line y2="6" x2="0"></line><text dy="7.1" y="9" x="0" transform="translate(0, 5)  rotate(0)" style="text-anchor: middle; fill: rgb(120, 120, 186); font-size: 10px; font-weight: bold;">21</text></g><g class="tick" transform="translate(692.0901811957699,0)" style="opacity: 1;"><line y2="6" x2="0"></line><text dy="7.1" y="9" x="0" transform="translate(0, 5)  rotate(0)" style="text-anchor: middle; fill: rgb(0, 0, 66); font-size: 10px; font-weight: bold;">22</text></g><g class="tick" transform="translate(717.2184842514621,0)" style="opacity: 1;"><line y2="6" x2="0"></line><text dy="7.1" y="9" x="0" transform="translate(0, 5)  rotate(0)" style="text-anchor: middle; fill: rgb(120, 120, 186); font-size: 10px; font-weight: bold;">X</text></g><g class="tick" transform="translate(743.064580298914,0)" style="opacity: 1;"><line y2="6" x2="0"></line><text dy="7.1" y="9" x="0" transform="translate(0, 5)  rotate(0)" style="text-anchor: middle; fill: rgb(0, 0, 66); font-size: 10px; font-weight: bold;">Y</text></g><path class="domain" d="M0,6V0H750V6"></path></g><g id="plot.efowas.y1_axis" class="lz-y lz-y1 lz-axis" transform="translate(50,32)"><text class="lz-y1 lz-axis lz-label" text-anchor="middle" x="-28" y="278" transform="rotate(-90 -28,278)">-log10 p-value</text><g class="tick" transform="translate(0,556)" style="opacity: 1;"><line x2="-6" y2="0"></line><text dy="3.2" x="-9" y="0" style="text-anchor: end;">0</text></g><g class="tick" transform="translate(0,459.7958646266861)" style="opacity: 1;"><line x2="-6" y2="0"></line><text dy="3.2" x="-9" y="0" style="text-anchor: end;">50</text></g><g class="tick" transform="translate(0,363.5917292533722)" style="opacity: 1;"><line x2="-6" y2="0"></line><text dy="3.2" x="-9" y="0" style="text-anchor: end;">100</text></g><g class="tick" transform="translate(0,267.38759388005826)" style="opacity: 1;"><line x2="-6" y2="0"></line><text dy="3.2" x="-9" y="0" style="text-anchor: end;">150</text></g><g class="tick" transform="translate(0,171.18345850674436)" style="opacity: 1;"><line x2="-6" y2="0"></line><text dy="3.2" x="-9" y="0" style="text-anchor: end;">200</text></g><g class="tick" transform="translate(0,74.97932313343046)" style="opacity: 1;"><line x2="-6" y2="0"></line><text dy="3.2" x="-9" y="0" style="text-anchor: end;">250</text></g><path class="domain" d="M-6,0H0V556H-6"></path></g><g id="plot.efowas.y2_axis" class="lz-y lz-y2 lz-axis"></g><g class="lz-data_layer-container" id="plot.efowas.significance.data_layer_container" transform="translate(50,32)"><clipPath id="plot.efowas.significance.clip"><rect width="750" height="556"></rect></clipPath><g id="plot.efowas.significance.data_layer" clip-path="url(#plot.efowas.significance.clip)"><path class="lz-data_layer-line" d="M0,541.9522144303074L750,541.9522144303074" style="stroke: rgb(211, 211, 211); stroke-width: 3px; stroke-dasharray: 10px, 10px;"></path></g></g><g class="lz-data_layer-container" id="plot.efowas.efowaspvalues.data_layer_container" transform="translate(50,32)"><clipPath id="plot.efowas.efowaspvalues.clip"><rect width="750" height="556"></rect></clipPath><g id="plot.efowas.efowaspvalues.data_layer" clip-path="url(#plot.efowas.efowaspvalues.clip)"><path class="lz-data_layer-scatter" id="plot_efowas_efowaspvalues-association21734" transform="translate(184.7464766327193,529.6420487045579)" fill="rgb(0,102,153)" fill-opacity="0.5" d="M0,3.989422804014327A3.989422804014327,3.989422804014327 0 1,1 0,-3.989422804014327A3.989422804014327,3.989422804014327 0 1,1 0,3.989422804014327Z"></path><path class="lz-data_layer-scatter" id="plot_efowas_efowaspvalues-association10067685" transform="translate(114.26688100056812,544.4555037552024)" fill="rgb(0,102,153)" fill-opacity="0.5" d="M0,3.989422804014327A3.989422804014327,3.989422804014327 0 1,1 0,-3.989422804014327A3.989422804014327,3.989422804014327 0 1,1 0,3.989422804014327Z"></path><path class="lz-data_layer-scatter" id="plot_efowas_efowaspvalues-association10067689" transform="translate(304.87707023113336,544.4555037552024)" fill="rgb(0,102,153)" fill-opacity="0.5" d="M0,3.989422804014327A3.989422804014327,3.989422804014327 0 1,1 0,-3.989422804014327A3.989422804014327,3.989422804014327 0 1,1 0,3.989422804014327Z"></path><path class="lz-data_layer-scatter" id="plot_efowas_efowaspvalues-association10067693" transform="translate(438.57610866190436,545.800379853583)" fill="rgb(0,102,153)" fill-opacity="0.5" d="M0,3.989422804014327A3.989422804014327,3.989422804014327 0 1,1 0,-3.989422804014327A3.989422804014327,3.989422804014327 0 1,1 0,3.989422804014327Z"></path><path class="lz-data_layer-scatter" id="plot_efowas_efowaspvalues-association10067697" transform="translate(513.5650954497327,544.0286484123925)" fill="rgb(0,102,153)" fill-opacity="0.5" d="M0,3.989422804014327A3.989422804014327,3.989422804014327 0 1,1 0,-3.989422804014327A3.989422804014327,3.989422804014327 0 1,1 0,3.989422804014327Z"></path><path class="lz-data_layer-scatter" id="plot_efowas_efowaspvalues-association10067701" transform="translate(531.443166812108,545.0347103642881)" fill="rgb(0,102,153)" fill-opacity="0.5" d="M0,3.989422804014327A3.989422804014327,3.989422804014327 0 1,1 0,-3.989422804014327A3.989422804014327,3.989422804014327 0 1,1 0,3.989422804014327Z"></path><path class="lz-data_layer-scatter" id="plot_efowas_efowaspvalues-association10067706" transform="translate(620.1752475358902,544.4555037552024)" fill="rgb(0,102,153)" fill-opacity="0.5" d="M0,3.989422804014327A3.989422804014327,3.989422804014327 0 1,1 0,-3.989422804014327A3.989422804014327,3.989422804014327 0 1,1 0,3.989422804014327Z"></path><path class="lz-data_layer-scatter" id="plot_efowas_efowaspvalues-association10067713" transform="translate(443.6387699003081,541.1865449493555)" fill="rgb(0,102,153)" fill-opacity="0.5" d="M0,3.989422804014327A3.989422804014327,3.989422804014327 0 1,1 0,-3.989422804014327A3.989422804014327,3.989422804014327 0 1,1 0,3.989422804014327Z"></path><path class="lz-data_layer-scatter" id="plot_efowas_efowaspvalues-association15179" transform="translate(184.7464766327193,462.29915394323814)" fill="rgb(0,102,153)" fill-opacity="0.5" d="M0,3.989422804014327A3.989422804014327,3.989422804014327 0 1,1 0,-3.989422804014327A3.989422804014327,3.989422804014327 0 1,1 0,3.989422804014327Z"></path><path class="lz-data_layer-scatter" id="plot_efowas_efowaspvalues-association15180" transform="translate(457.46786741146093,539.6012763883742)" fill="rgb(0,102,153)" fill-opacity="0.5" d="M0,3.989422804014327A3.989422804014327,3.989422804014327 0 1,1 0,-3.989422804014327A3.989422804014327,3.989422804014327 0 1,1 0,3.989422804014327Z"></path><path class="lz-data_layer-scatter" id="plot_efowas_efowaspvalues-association15181" transform="translate(443.75158590714176,524.208614728644)" fill="rgb(0,102,153)" fill-opacity="0.5" d="M0,3.989422804014327A3.989422804014327,3.989422804014327 0 1,1 0,-3.989422804014327A3.989422804014327,3.989422804014327 0 1,1 0,3.989422804014327Z"></path><path class="lz-data_layer-scatter" id="plot_efowas_efowaspvalues-association27594830" transform="translate(184.74888590013188,484.229733214662)" fill="rgb(0,102,153)" fill-opacity="0.5" d="M0,3.989422804014327A3.989422804014327,3.989422804014327 0 1,1 0,-3.989422804014327A3.989422804014327,3.989422804014327 0 1,1 0,3.989422804014327Z"></path><path class="lz-data_layer-scatter" id="plot_efowas_efowaspvalues-association27594836" transform="translate(443.74810071034847,536.7591729253372)" fill="rgb(0,102,153)" fill-opacity="0.5" d="M0,3.989422804014327A3.989422804014327,3.989422804014327 0 1,1 0,-3.989422804014327A3.989422804014327,3.989422804014327 0 1,1 0,3.989422804014327Z"></path><path class="lz-data_layer-scatter" id="plot_efowas_efowaspvalues-association14217664" transform="translate(664.4627978920514,539.8416688509749)" fill="rgb(0,102,153)" fill-opacity="0.5" d="M0,3.989422804014327A3.989422804014327,3.989422804014327 0 1,1 0,-3.989422804014327A3.989422804014327,3.989422804014327 0 1,1 0,3.989422804014327Z"></path><path class="lz-data_layer-scatter" id="plot_efowas_efowaspvalues-association14217679" transform="translate(37.06442049742587,544.4555037552024)" fill="rgb(0,102,153)" fill-opacity="0.5" d="M0,3.989422804014327A3.989422804014327,3.989422804014327 0 1,1 0,-3.989422804014327A3.989422804014327,3.989422804014327 0 1,1 0,3.989422804014327Z"></path><path class="lz-data_layer-scatter" id="plot_efowas_efowaspvalues-association11505" transform="translate(278.9672456672837,544.4555037552024)" fill="rgb(0,102,153)" fill-opacity="0.5" d="M0,3.989422804014327A3.989422804014327,3.989422804014327 0 1,1 0,-3.989422804014327A3.989422804014327,3.989422804014327 0 1,1 0,3.989422804014327Z"></path><path class="lz-data_layer-scatter" id="plot_efowas_efowaspvalues-association11510" transform="translate(518.2494798900657,545.373524510773)" fill="rgb(0,102,153)" fill-opacity="0.5" d="M0,3.989422804014327A3.989422804014327,3.989422804014327 0 1,1 0,-3.989422804014327A3.989422804014327,3.989422804014327 0 1,1 0,3.989422804014327Z"></path><path class="lz-data_layer-scatter" id="plot_efowas_efowaspvalues-association44569" transform="translate(184.7457819686947,539.8416688509749)" fill="rgb(0,102,153)" fill-opacity="0.5" d="M0,3.989422804014327A3.989422804014327,3.989422804014327 0 1,1 0,-3.989422804014327A3.989422804014327,3.989422804014327 0 1,1 0,3.989422804014327Z"></path><path class="lz-data_layer-scatter" id="plot_efowas_efowaspvalues-association44570" transform="translate(443.7174782913437,541.7657515584411)" fill="rgb(0,102,153)" fill-opacity="0.5" d="M0,3.989422804014327A3.989422804014327,3.989422804014327 0 1,1 0,-3.989422804014327A3.989422804014327,3.989422804014327 0 1,1 0,3.989422804014327Z"></path><path class="lz-data_layer-scatter" id="plot_efowas_efowaspvalues-association44571" transform="translate(184.75498541868703,539.8416688509749)" fill="rgb(0,102,153)" fill-opacity="0.5" d="M0,3.989422804014327A3.989422804014327,3.989422804014327 0 1,1 0,-3.989422804014327A3.989422804014327,3.989422804014327 0 1,1 0,3.989422804014327Z"></path><path class="lz-data_layer-scatter" id="plot_efowas_efowaspvalues-association44572" transform="translate(443.71978551634373,537.338379534423)" fill="rgb(0,102,153)" fill-opacity="0.5" d="M0,3.989422804014327A3.989422804014327,3.989422804014327 0 1,1 0,-3.989422804014327A3.989422804014327,3.989422804014327 0 1,1 0,3.989422804014327Z"></path><path class="lz-data_layer-scatter" id="plot_efowas_efowaspvalues-association30522207" transform="translate(184.74840210760115,532.9110075104046)" fill="rgb(0,102,153)" fill-opacity="0.5" d="M0,3.989422804014327A3.989422804014327,3.989422804014327 0 1,1 0,-3.989422804014327A3.989422804014327,3.989422804014327 0 1,1 0,3.989422804014327Z"></path><path class="lz-data_layer-scatter" id="plot_efowas_efowaspvalues-association30522217" transform="translate(251.27007189767158,541.5253590958405)" fill="rgb(0,102,153)" fill-opacity="0.5" d="M0,3.989422804014327A3.989422804014327,3.989422804014327 0 1,1 0,-3.989422804014327A3.989422804014327,3.989422804014327 0 1,1 0,3.989422804014327Z"></path><path class="lz-data_layer-scatter" id="plot_efowas_efowaspvalues-association30522222" transform="translate(184.73928785382688,537.6771936809079)" fill="rgb(0,102,153)" fill-opacity="0.5" d="M0,3.989422804014327A3.989422804014327,3.989422804014327 0 1,1 0,-3.989422804014327A3.989422804014327,3.989422804014327 0 1,1 0,3.989422804014327Z"></path><path class="lz-data_layer-scatter" id="plot_efowas_efowaspvalues-association30522242" transform="translate(184.7464766327193,435.9412026477959)" fill="rgb(0,102,153)" fill-opacity="0.5" d="M0,3.989422804014327A3.989422804014327,3.989422804014327 0 1,1 0,-3.989422804014327A3.989422804014327,3.989422804014327 0 1,1 0,3.989422804014327Z"></path><path class="lz-data_layer-scatter" id="plot_efowas_efowaspvalues-association30522288" transform="translate(457.4619251981926,526.5595527789201)" fill="rgb(0,102,153)" fill-opacity="0.5" d="M0,3.989422804014327A3.989422804014327,3.989422804014327 0 1,1 0,-3.989422804014327A3.989422804014327,3.989422804014327 0 1,1 0,3.989422804014327Z"></path><path class="lz-data_layer-scatter" id="plot_efowas_efowaspvalues-association30522300" transform="translate(483.9257995845341,541.5253590958405)" fill="rgb(0,102,153)" fill-opacity="0.5" d="M0,3.989422804014327A3.989422804014327,3.989422804014327 0 1,1 0,-3.989422804014327A3.989422804014327,3.989422804014327 0 1,1 0,3.989422804014327Z"></path><path class="lz-data_layer-scatter" id="plot_efowas_efowaspvalues-association30522305" transform="translate(516.692043631677,539.8416688509749)" fill="rgb(0,102,153)" fill-opacity="0.5" d="M0,3.989422804014327A3.989422804014327,3.989422804014327 0 1,1 0,-3.989422804014327A3.989422804014327,3.989422804014327 0 1,1 0,3.989422804014327Z"></path><path class="lz-data_layer-scatter" id="plot_efowas_efowaspvalues-association30522310" transform="translate(184.7464766327193,544.4555037552024)" fill="rgb(0,102,153)" fill-opacity="0.5" d="M0,3.989422804014327A3.989422804014327,3.989422804014327 0 1,1 0,-3.989422804014327A3.989422804014327,3.989422804014327 0 1,1 0,3.989422804014327Z"></path><path class="lz-data_layer-scatter" id="plot_efowas_efowaspvalues-association30522315" transform="translate(184.7488885663232,542.531421047736)" fill="rgb(0,102,153)" fill-opacity="0.5" d="M0,3.989422804014327A3.989422804014327,3.989422804014327 0 1,1 0,-3.989422804014327A3.989422804014327,3.989422804014327 0 1,1 0,3.989422804014327Z"></path><path class="lz-data_layer-scatter" id="plot_efowas_efowaspvalues-association30522320" transform="translate(184.77011484241885,545.373524510773)" fill="rgb(0,102,153)" fill-opacity="0.5" d="M0,3.989422804014327A3.989422804014327,3.989422804014327 0 1,1 0,-3.989422804014327A3.989422804014327,3.989422804014327 0 1,1 0,3.989422804014327Z"></path><path class="lz-data_layer-scatter" id="plot_efowas_efowaspvalues-association30522325" transform="translate(184.7464766327193,437.8652853552622)" fill="rgb(0,102,153)" fill-opacity="0.5" d="M0,3.989422804014327A3.989422804014327,3.989422804014327 0 1,1 0,-3.989422804014327A3.989422804014327,3.989422804014327 0 1,1 0,3.989422804014327Z"></path><path class="lz-data_layer-scatter" id="plot_efowas_efowaspvalues-association30522329" transform="translate(457.4621578839789,525.2146766805396)" fill="rgb(0,102,153)" fill-opacity="0.5" d="M0,3.989422804014327A3.989422804014327,3.989422804014327 0 1,1 0,-3.989422804014327A3.989422804014327,3.989422804014327 0 1,1 0,3.989422804014327Z"></path><path class="lz-data_layer-scatter" id="plot_efowas_efowaspvalues-association30522333" transform="translate(443.751481198538,545.0347103642881)" fill="rgb(0,102,153)" fill-opacity="0.5" d="M0,3.989422804014327A3.989422804014327,3.989422804014327 0 1,1 0,-3.989422804014327A3.989422804014327,3.989422804014327 0 1,1 0,3.989422804014327Z"></path><path class="lz-data_layer-scatter" id="plot_efowas_efowaspvalues-association31570942" transform="translate(184.8352765578317,538.4967927525944)" fill="rgb(0,102,153)" fill-opacity="0.5" d="M0,3.989422804014327A3.989422804014327,3.989422804014327 0 1,1 0,-3.989422804014327A3.989422804014327,3.989422804014327 0 1,1 0,3.989422804014327Z"></path><path class="lz-data_layer-scatter" id="plot_efowas_efowaspvalues-association31570962" transform="translate(184.77965471727728,532.4841521675949)" fill="rgb(0,102,153)" fill-opacity="0.5" d="M0,3.989422804014327A3.989422804014327,3.989422804014327 0 1,1 0,-3.989422804014327A3.989422804014327,3.989422804014327 0 1,1 0,3.989422804014327Z"></path><path class="lz-data_layer-scatter" id="plot_efowas_efowaspvalues-association24079593" transform="translate(443.578767992207,504.6289735074962)" fill="rgb(0,102,153)" fill-opacity="0.5" d="M0,3.989422804014327A3.989422804014327,3.989422804014327 0 1,1 0,-3.989422804014327A3.989422804014327,3.989422804014327 0 1,1 0,3.989422804014327Z"></path><path class="lz-data_layer-scatter" id="plot_efowas_efowaspvalues-association24079598" transform="translate(443.6231775288138,494.13130917851794)" fill="rgb(0,102,153)" fill-opacity="0.5" d="M0,3.989422804014327A3.989422804014327,3.989422804014327 0 1,1 0,-3.989422804014327A3.989422804014327,3.989422804014327 0 1,1 0,3.989422804014327Z"></path><path class="lz-data_layer-scatter" id="plot_efowas_efowaspvalues-association24079603" transform="translate(443.6497226141753,498.0910558958025)" fill="rgb(0,102,153)" fill-opacity="0.5" d="M0,3.989422804014327A3.989422804014327,3.989422804014327 0 1,1 0,-3.989422804014327A3.989422804014327,3.989422804014327 0 1,1 0,3.989422804014327Z"></path><path class="lz-data_layer-scatter" id="plot_efowas_efowaspvalues-association24079608" transform="translate(443.74223193853146,383.4117629371207)" fill="rgb(0,102,153)" fill-opacity="0.5" d="M0,3.989422804014327A3.989422804014327,3.989422804014327 0 1,1 0,-3.989422804014327A3.989422804014327,3.989422804014327 0 1,1 0,3.989422804014327Z"></path><path class="lz-data_layer-scatter" id="plot_efowas_efowaspvalues-association24079613" transform="translate(443.8009504390923,495.34737411664986)" fill="rgb(0,102,153)" fill-opacity="0.5" d="M0,3.989422804014327A3.989422804014327,3.989422804014327 0 1,1 0,-3.989422804014327A3.989422804014327,3.989422804014327 0 1,1 0,3.989422804014327Z"></path><path class="lz-data_layer-scatter" id="plot_efowas_efowaspvalues-association24079618" transform="translate(457.46270348367165,479.03669170134884)" fill="rgb(0,102,153)" fill-opacity="0.5" d="M0,3.989422804014327A3.989422804014327,3.989422804014327 0 1,1 0,-3.989422804014327A3.989422804014327,3.989422804014327 0 1,1 0,3.989422804014327Z"></path><path class="lz-data_layer-scatter" id="plot_efowas_efowaspvalues-association24079623" transform="translate(496.12957936437687,537.6771936809079)" fill="rgb(0,102,153)" fill-opacity="0.5" d="M0,3.989422804014327A3.989422804014327,3.989422804014327 0 1,1 0,-3.989422804014327A3.989422804014327,3.989422804014327 0 1,1 0,3.989422804014327Z"></path><path class="lz-data_layer-scatter" id="plot_efowas_efowaspvalues-association24079629" transform="translate(542.7033499807561,540.18048299746)" fill="rgb(0,102,153)" fill-opacity="0.5" d="M0,3.989422804014327A3.989422804014327,3.989422804014327 0 1,1 0,-3.989422804014327A3.989422804014327,3.989422804014327 0 1,1 0,3.989422804014327Z"></path><path class="lz-data_layer-scatter" id="plot_efowas_efowaspvalues-association24079634" transform="translate(184.7058860515806,502.70489080002994)" fill="rgb(0,102,153)" fill-opacity="0.5" d="M0,3.989422804014327A3.989422804014327,3.989422804014327 0 1,1 0,-3.989422804014327A3.989422804014327,3.989422804014327 0 1,1 0,3.989422804014327Z"></path><path class="lz-data_layer-scatter" id="plot_efowas_efowaspvalues-association24079639" transform="translate(184.74888590013188,50.54545454545456)" fill="rgb(0,102,153)" fill-opacity="0.5" d="M0,3.989422804014327A3.989422804014327,3.989422804014327 0 1,1 0,-3.989422804014327A3.989422804014327,3.989422804014327 0 1,1 0,3.989422804014327Z"></path><path class="lz-data_layer-scatter" id="plot_efowas_efowaspvalues-association24079644" transform="translate(184.77329609340381,444.40320296695586)" fill="rgb(0,102,153)" fill-opacity="0.5" d="M0,3.989422804014327A3.989422804014327,3.989422804014327 0 1,1 0,-3.989422804014327A3.989422804014327,3.989422804014327 0 1,1 0,3.989422804014327Z"></path><path class="lz-data_layer-scatter" id="plot_efowas_efowaspvalues-association24079649" transform="translate(184.81019836244818,499.19553953158237)" fill="rgb(0,102,153)" fill-opacity="0.5" d="M0,3.989422804014327A3.989422804014327,3.989422804014327 0 1,1 0,-3.989422804014327A3.989422804014327,3.989422804014327 0 1,1 0,3.989422804014327Z"></path><path class="lz-data_layer-scatter" id="plot_efowas_efowaspvalues-association24079654" transform="translate(184.84913954069523,516.1734697522938)" fill="rgb(0,102,153)" fill-opacity="0.5" d="M0,3.989422804014327A3.989422804014327,3.989422804014327 0 1,1 0,-3.989422804014327A3.989422804014327,3.989422804014327 0 1,1 0,3.989422804014327Z"></path><path class="lz-data_layer-scatter" id="plot_efowas_efowaspvalues-association24079659" transform="translate(184.88289037162104,518.8632219490551)" fill="rgb(0,102,153)" fill-opacity="0.5" d="M0,3.989422804014327A3.989422804014327,3.989422804014327 0 1,1 0,-3.989422804014327A3.989422804014327,3.989422804014327 0 1,1 0,3.989422804014327Z"></path><path class="lz-data_layer-scatter" id="plot_efowas_efowaspvalues-association24079664" transform="translate(457.45297891447035,539.2624622418892)" fill="rgb(0,102,153)" fill-opacity="0.5" d="M0,3.989422804014327A3.989422804014327,3.989422804014327 0 1,1 0,-3.989422804014327A3.989422804014327,3.989422804014327 0 1,1 0,3.989422804014327Z"></path><path class="lz-data_layer-scatter" id="plot_efowas_efowaspvalues-association24079668" transform="translate(672.0470068878186,523.869800582159)" fill="rgb(0,102,153)" fill-opacity="0.5" d="M0,3.989422804014327A3.989422804014327,3.989422804014327 0 1,1 0,-3.989422804014327A3.989422804014327,3.989422804014327 0 1,1 0,3.989422804014327Z"></path><path class="lz-data_layer-scatter" id="plot_efowas_efowaspvalues-association27362243" transform="translate(496.1246730876197,518.0975524597602)" fill="rgb(0,102,153)" fill-opacity="0.5" d="M0,3.989422804014327A3.989422804014327,3.989422804014327 0 1,1 0,-3.989422804014327A3.989422804014327,3.989422804014327 0 1,1 0,3.989422804014327Z"></path><path class="lz-data_layer-scatter" id="plot_efowas_efowaspvalues-association27362248" transform="translate(542.6967339482314,534.835090217871)" fill="rgb(0,102,153)" fill-opacity="0.5" d="M0,3.989422804014327A3.989422804014327,3.989422804014327 0 1,1 0,-3.989422804014327A3.989422804014327,3.989422804014327 0 1,1 0,3.989422804014327Z"></path><path class="lz-data_layer-scatter" id="plot_efowas_efowaspvalues-association27362253" transform="translate(184.74672264946213,556)" fill="rgb(0,102,153)" fill-opacity="0.5" d="M0,3.989422804014327A3.989422804014327,3.989422804014327 0 1,1 0,-3.989422804014327A3.989422804014327,3.989422804014327 0 1,1 0,3.989422804014327Z"></path><path class="lz-data_layer-scatter" id="plot_efowas_efowaspvalues-association27362257" transform="translate(457.4612964618075,437.8652853552622)" fill="rgb(0,102,153)" fill-opacity="0.5" d="M0,3.989422804014327A3.989422804014327,3.989422804014327 0 1,1 0,-3.989422804014327A3.989422804014327,3.989422804014327 0 1,1 0,3.989422804014327Z"></path><path class="lz-data_layer-scatter" id="plot_efowas_efowaspvalues-association27362261" transform="translate(443.751481198538,468.0714020656369)" fill="rgb(0,102,153)" fill-opacity="0.5" d="M0,3.989422804014327A3.989422804014327,3.989422804014327 0 1,1 0,-3.989422804014327A3.989422804014327,3.989422804014327 0 1,1 0,3.989422804014327Z"></path><path class="lz-data_layer-scatter" id="plot_efowas_efowaspvalues-association27362265" transform="translate(672.0472395736049,513.4837175555327)" fill="rgb(0,102,153)" fill-opacity="0.5" d="M0,3.989422804014327A3.989422804014327,3.989422804014327 0 1,1 0,-3.989422804014327A3.989422804014327,3.989422804014327 0 1,1 0,3.989422804014327Z"></path><path class="lz-data_layer-scatter" id="plot_efowas_efowaspvalues-association27438753" transform="translate(184.7464766327193,196.19653370380604)" fill="rgb(0,102,153)" fill-opacity="0.5" d="M0,3.989422804014327A3.989422804014327,3.989422804014327 0 1,1 0,-3.989422804014327A3.989422804014327,3.989422804014327 0 1,1 0,3.989422804014327Z"></path><path class="lz-data_layer-scatter" id="plot_efowas_efowaspvalues-association27438757" transform="translate(457.4661065132967,496.93264267763107)" fill="rgb(0,102,153)" fill-opacity="0.5" d="M0,3.989422804014327A3.989422804014327,3.989422804014327 0 1,1 0,-3.989422804014327A3.989422804014327,3.989422804014327 0 1,1 0,3.989422804014327Z"></path><path class="lz-data_layer-scatter" id="plot_efowas_efowaspvalues-association27438761" transform="translate(443.751481198538,483.4640637253671)" fill="rgb(0,102,153)" fill-opacity="0.5" d="M0,3.989422804014327A3.989422804014327,3.989422804014327 0 1,1 0,-3.989422804014327A3.989422804014327,3.989422804014327 0 1,1 0,3.989422804014327Z"></path><path class="lz-data_layer-scatter" id="plot_efowas_efowaspvalues-association27438765" transform="translate(672.0472395736049,529.0628420954721)" fill="rgb(0,102,153)" fill-opacity="0.5" d="M0,3.989422804014327A3.989422804014327,3.989422804014327 0 1,1 0,-3.989422804014327A3.989422804014327,3.989422804014327 0 1,1 0,3.989422804014327Z"></path><path class="lz-data_layer-scatter" id="plot_efowas_efowaspvalues-association27438769" transform="translate(496.1246730876197,542.531421047736)" fill="rgb(0,102,153)" fill-opacity="0.5" d="M0,3.989422804014327A3.989422804014327,3.989422804014327 0 1,1 0,-3.989422804014327A3.989422804014327,3.989422804014327 0 1,1 0,3.989422804014327Z"></path></g></g><g id="plot.efowas.legend" class="lz-legend" transform="translate(55,40)" style="visibility: visible;"><rect width="103.21708679199219" height="59.522216796875" class="lz-legend-background"></rect><g><g transform="translate(5,47.52197265625)"><text text-anchor="left" class="lz-title" x="0" y="-24" style="font-size: 12px;">Trait category</text><rect class="" width="9" height="9" fill="rgb(0,102,153)"></rect><text text-anchor="left" class="lz-label" x="14" y="8.5" style="font-size: 12px;">measurement</text></g></g></g></g></g></svg>